<svg id="Layer_1" data-name="Layer 1" xmlns="http://www.w3.org/2000/svg" viewBox="0 0 534 533"><defs><style>.cls-1,.cls-3{fill:none;}.cls-1{stroke:#fff;stroke-linecap:round;stroke-miterlimit:10;stroke-width:3px;}.cls-2{fill:#999;}.cls-4{fill:#f2f2f2;}.cls-5{fill:#ccc;}.cls-6{fill:#b3b3b3;}.cls-7{fill:#e6e6e6;}.cls-8{fill:gray;}</style></defs><title>jw-initial</title><rect class="cls-1" x="0.5" y="0.5" width="533" height="533"/><polygon class="cls-2" points="198 294 198 313 126.5 313 198 294"/><line class="cls-3" x1="303.5" y1="384.5" x2="272.5" y2="233.5"/><polygon class="cls-4" points="272 234 198 385 197.5 234.5 149.5 186.5 150 114 150.5 113.5 272 234"/><polygon class="cls-5" points="198 313 198 385 126.25 312.75 126.5 312.5 198 313"/><polygon class="cls-6" points="272 234 262 344 198 385 271.99 234 272 234"/><polygon class="cls-7" points="271.5 210.69 272 234 150.5 113.5 271.5 210.69"/><polygon class="cls-8" points="272 234 303.5 384.5 262 344 272 234"/><polygon class="cls-6" points="437.5 233.5 337.5 258.5 341.5 233.5 437.5 233.5"/><polygon class="cls-7" points="411 294 333 294 334.5 283.5 411 294"/><polygon class="cls-6" points="411 294 330.5 312.5 333 294 411 294"/><polygon class="cls-4" points="437.5 233.5 272 234 271.5 210.5 437.5 233.5"/><polygon class="cls-4" points="341.5 233.5 320.5 384.5 303.5 384.5 272 234 341.5 233.5"/><polygon class="cls-2" points="150.5 113.5 197.5 234.5 149.5 186.5 150.5 113.5"/><polygon class="cls-7" points="341 234 272 234 271.5 210.5 341 234"/></svg>