<svg id="Layer_1" data-name="Layer 1" xmlns="http://www.w3.org/2000/svg" viewBox="0 0 549 549"><defs><style>.cls-1,.cls-2{fill:#fff;}.cls-2{font-size:300px;font-family:AvenirNext-UltraLight, Avenir Next;}.cls-3{letter-spacing:0.02em;}</style></defs><title>jwf-initial-2</title><path class="cls-1" d="M544,3a2,2,0,0,1,2,2V544a2,2,0,0,1-2,2H5a2,2,0,0,1-2-2V5A2,2,0,0,1,5,3H544m0-3H5A5,5,0,0,0,0,5V544a5,5,0,0,0,5,5H544a5,5,0,0,0,5-5V5a5,5,0,0,0-5-5Z"/><text class="cls-2" transform="translate(93.05 346.9)">jw<tspan class="cls-3" x="277.2" y="0">f</tspan></text></svg>